<mxfile host="app.diagrams.net" modified="2022-06-29T07:59:39.301Z" agent="5.0 (Macintosh; Intel Mac OS X 10_15_7) AppleWebKit/537.36 (KHTML, like Gecko) Chrome/103.0.0.0 Safari/537.36" etag="Kx7C5mcRbGpUgrqGEQf2" version="20.0.3" type="github">
  <diagram id="DSTkbIyWqdi_vbWw9z5b" name="Page-1">
    <mxGraphModel dx="1080" dy="571" grid="1" gridSize="10" guides="1" tooltips="1" connect="1" arrows="1" fold="1" page="1" pageScale="1" pageWidth="827" pageHeight="1169" math="0" shadow="0">
      <root>
        <mxCell id="0" />
        <mxCell id="1" parent="0" />
        <mxCell id="qMEl2NT1AJ3Zlcp4LX8--1" value="start" style="ellipse;whiteSpace=wrap;html=1;" parent="1" vertex="1">
          <mxGeometry x="20" y="20" width="70" height="50" as="geometry" />
        </mxCell>
        <mxCell id="qMEl2NT1AJ3Zlcp4LX8--2" value="ระบุข้อมูลผู้ใช้เเละรหัสผ่าน" style="rounded=1;whiteSpace=wrap;html=1;" parent="1" vertex="1">
          <mxGeometry x="150" y="22.5" width="100" height="47.5" as="geometry" />
        </mxCell>
        <mxCell id="qMEl2NT1AJ3Zlcp4LX8--3" value="" style="endArrow=classic;html=1;rounded=0;" parent="1" edge="1">
          <mxGeometry width="50" height="50" relative="1" as="geometry">
            <mxPoint x="90" y="44.5" as="sourcePoint" />
            <mxPoint x="150" y="44.5" as="targetPoint" />
          </mxGeometry>
        </mxCell>
        <mxCell id="qMEl2NT1AJ3Zlcp4LX8--4" value="" style="endArrow=classic;html=1;rounded=0;" parent="1" edge="1">
          <mxGeometry width="50" height="50" relative="1" as="geometry">
            <mxPoint x="250" y="44.5" as="sourcePoint" />
            <mxPoint x="310" y="45" as="targetPoint" />
          </mxGeometry>
        </mxCell>
        <mxCell id="qMEl2NT1AJ3Zlcp4LX8--5" value="&lt;font size=&quot;1&quot;&gt;ตรวจสอบความถูก&lt;br&gt;ต้องของข้อมูล&lt;/font&gt;" style="rhombus;whiteSpace=wrap;html=1;rounded=1;arcSize=25;" parent="1" vertex="1">
          <mxGeometry x="310" y="5.31" width="110" height="74.69" as="geometry" />
        </mxCell>
        <mxCell id="qMEl2NT1AJ3Zlcp4LX8--6" value="" style="endArrow=classic;html=1;rounded=0;fontSize=9;" parent="1" edge="1">
          <mxGeometry width="50" height="50" relative="1" as="geometry">
            <mxPoint x="414" y="42.3" as="sourcePoint" />
            <mxPoint x="474" y="42.15" as="targetPoint" />
          </mxGeometry>
        </mxCell>
        <mxCell id="qMEl2NT1AJ3Zlcp4LX8--8" value="ไม่ถูกต้อง" style="text;html=1;align=center;verticalAlign=middle;resizable=0;points=[];autosize=1;strokeColor=none;fillColor=none;fontSize=9;" parent="1" vertex="1">
          <mxGeometry x="410" y="20" width="60" height="20" as="geometry" />
        </mxCell>
        <mxCell id="qMEl2NT1AJ3Zlcp4LX8--9" value="เเสดงการแจ้งเตือน&lt;br&gt;ว่าข้อมูลไม่ครบ กรุณากรอก" style="rounded=1;whiteSpace=wrap;html=1;fontSize=9;" parent="1" vertex="1">
          <mxGeometry x="480" y="18.98" width="80" height="47.35" as="geometry" />
        </mxCell>
        <mxCell id="qMEl2NT1AJ3Zlcp4LX8--10" value="" style="endArrow=classic;html=1;rounded=0;fontSize=9;" parent="1" edge="1">
          <mxGeometry width="50" height="50" relative="1" as="geometry">
            <mxPoint x="364.5" y="80" as="sourcePoint" />
            <mxPoint x="364.5" y="140" as="targetPoint" />
          </mxGeometry>
        </mxCell>
        <mxCell id="qMEl2NT1AJ3Zlcp4LX8--11" value="ถูกต้อง" style="text;html=1;align=center;verticalAlign=middle;resizable=0;points=[];autosize=1;strokeColor=none;fillColor=none;fontSize=9;" parent="1" vertex="1">
          <mxGeometry x="315" y="90" width="50" height="20" as="geometry" />
        </mxCell>
        <mxCell id="qMEl2NT1AJ3Zlcp4LX8--20" value="" style="edgeStyle=orthogonalEdgeStyle;rounded=0;orthogonalLoop=1;jettySize=auto;html=1;fontSize=9;" parent="1" source="qMEl2NT1AJ3Zlcp4LX8--12" target="qMEl2NT1AJ3Zlcp4LX8--13" edge="1">
          <mxGeometry relative="1" as="geometry" />
        </mxCell>
        <mxCell id="qMEl2NT1AJ3Zlcp4LX8--12" value="เรียก API Login&amp;nbsp;" style="whiteSpace=wrap;html=1;rounded=1;fontSize=9;" parent="1" vertex="1">
          <mxGeometry x="317.5" y="140" width="95" height="50" as="geometry" />
        </mxCell>
        <mxCell id="qMEl2NT1AJ3Zlcp4LX8--15" value="" style="endArrow=classic;html=1;rounded=0;fontSize=9;" parent="1" edge="1">
          <mxGeometry width="50" height="50" relative="1" as="geometry">
            <mxPoint x="364.5" y="200" as="sourcePoint" />
            <mxPoint x="364.5" y="250" as="targetPoint" />
          </mxGeometry>
        </mxCell>
        <mxCell id="qMEl2NT1AJ3Zlcp4LX8--21" value="" style="endArrow=classic;html=1;rounded=0;fontSize=9;" parent="1" edge="1">
          <mxGeometry width="50" height="50" relative="1" as="geometry">
            <mxPoint x="364.5" y="330" as="sourcePoint" />
            <mxPoint x="364.5" y="380" as="targetPoint" />
          </mxGeometry>
        </mxCell>
        <mxCell id="qMEl2NT1AJ3Zlcp4LX8--24" value="ตรวจสอบสถานะข้อมูล" style="whiteSpace=wrap;html=1;rounded=1;fontSize=9;" parent="1" vertex="1">
          <mxGeometry x="310" y="380" width="110" height="40" as="geometry" />
        </mxCell>
        <mxCell id="qMEl2NT1AJ3Zlcp4LX8--30" value="" style="group" parent="1" vertex="1" connectable="0">
          <mxGeometry x="325" y="250" width="235" height="110" as="geometry" />
        </mxCell>
        <mxCell id="qMEl2NT1AJ3Zlcp4LX8--13" value="เชื่อมต่อได้" style="rhombus;whiteSpace=wrap;html=1;rounded=1;fontSize=9;" parent="qMEl2NT1AJ3Zlcp4LX8--30" vertex="1">
          <mxGeometry width="80" height="80" as="geometry" />
        </mxCell>
        <mxCell id="qMEl2NT1AJ3Zlcp4LX8--17" value="" style="endArrow=classic;html=1;rounded=0;fontSize=9;" parent="qMEl2NT1AJ3Zlcp4LX8--30" edge="1">
          <mxGeometry width="50" height="50" relative="1" as="geometry">
            <mxPoint x="75" y="39.64999999999998" as="sourcePoint" />
            <mxPoint x="135" y="39.5" as="targetPoint" />
          </mxGeometry>
        </mxCell>
        <mxCell id="qMEl2NT1AJ3Zlcp4LX8--18" value="ไม่ได้" style="text;html=1;align=center;verticalAlign=middle;resizable=0;points=[];autosize=1;strokeColor=none;fillColor=none;fontSize=9;" parent="qMEl2NT1AJ3Zlcp4LX8--30" vertex="1">
          <mxGeometry x="80" y="20" width="40" height="20" as="geometry" />
        </mxCell>
        <mxCell id="qMEl2NT1AJ3Zlcp4LX8--19" value="เเสดงการแจ้งเตือนว่าไม่สามารถเชื่อมต่อได้" style="rounded=1;whiteSpace=wrap;html=1;fontSize=9;" parent="qMEl2NT1AJ3Zlcp4LX8--30" vertex="1">
          <mxGeometry x="135" y="16.329999999999984" width="100" height="53.67" as="geometry" />
        </mxCell>
        <mxCell id="qMEl2NT1AJ3Zlcp4LX8--23" value="ได้" style="text;html=1;align=center;verticalAlign=middle;resizable=0;points=[];autosize=1;strokeColor=none;fillColor=none;fontSize=9;" parent="qMEl2NT1AJ3Zlcp4LX8--30" vertex="1">
          <mxGeometry y="90" width="30" height="20" as="geometry" />
        </mxCell>
        <mxCell id="qMEl2NT1AJ3Zlcp4LX8--31" value="สถานะ S" style="rhombus;whiteSpace=wrap;html=1;rounded=1;fontSize=9;" parent="1" vertex="1">
          <mxGeometry x="325" y="470" width="80" height="80" as="geometry" />
        </mxCell>
        <mxCell id="qMEl2NT1AJ3Zlcp4LX8--32" value="" style="endArrow=classic;html=1;rounded=0;fontSize=9;" parent="1" edge="1">
          <mxGeometry width="50" height="50" relative="1" as="geometry">
            <mxPoint x="405" y="509.65" as="sourcePoint" />
            <mxPoint x="465" y="509.5" as="targetPoint" />
          </mxGeometry>
        </mxCell>
        <mxCell id="qMEl2NT1AJ3Zlcp4LX8--33" value="ไม่" style="text;html=1;align=center;verticalAlign=middle;resizable=0;points=[];autosize=1;strokeColor=none;fillColor=none;fontSize=9;" parent="1" vertex="1">
          <mxGeometry x="410" y="480" width="30" height="20" as="geometry" />
        </mxCell>
        <mxCell id="qMEl2NT1AJ3Zlcp4LX8--34" value="แสดงแจ้งเตือนข้อผิดพลาด" style="rounded=1;whiteSpace=wrap;html=1;fontSize=9;" parent="1" vertex="1">
          <mxGeometry x="465" y="470" width="115" height="63.67" as="geometry" />
        </mxCell>
        <mxCell id="qMEl2NT1AJ3Zlcp4LX8--35" value="ใช่" style="text;html=1;align=center;verticalAlign=middle;resizable=0;points=[];autosize=1;strokeColor=none;fillColor=none;fontSize=9;" parent="1" vertex="1">
          <mxGeometry x="325" y="565" width="30" height="20" as="geometry" />
        </mxCell>
        <mxCell id="qMEl2NT1AJ3Zlcp4LX8--36" value="" style="endArrow=classic;html=1;rounded=0;fontSize=9;" parent="1" edge="1">
          <mxGeometry width="50" height="50" relative="1" as="geometry">
            <mxPoint x="364.5" y="420" as="sourcePoint" />
            <mxPoint x="364.5" y="470" as="targetPoint" />
          </mxGeometry>
        </mxCell>
        <mxCell id="qMEl2NT1AJ3Zlcp4LX8--39" value="" style="endArrow=classic;html=1;rounded=0;fontSize=9;" parent="1" edge="1">
          <mxGeometry width="50" height="50" relative="1" as="geometry">
            <mxPoint x="364.5" y="550" as="sourcePoint" />
            <mxPoint x="364.5" y="600" as="targetPoint" />
          </mxGeometry>
        </mxCell>
        <mxCell id="qMEl2NT1AJ3Zlcp4LX8--40" value="ทำการเก็บข้อมูลของผู้ใช้งานไว้ใน LocalStorage&lt;br&gt;(Redux : userInfo)" style="rounded=1;whiteSpace=wrap;html=1;fontSize=9;" parent="1" vertex="1">
          <mxGeometry x="293.75" y="600" width="146.25" height="70" as="geometry" />
        </mxCell>
        <mxCell id="qMEl2NT1AJ3Zlcp4LX8--42" value="" style="endArrow=classic;html=1;rounded=0;fontSize=9;" parent="1" edge="1">
          <mxGeometry width="50" height="50" relative="1" as="geometry">
            <mxPoint x="367" y="670" as="sourcePoint" />
            <mxPoint x="367" y="720" as="targetPoint" />
          </mxGeometry>
        </mxCell>
        <mxCell id="qMEl2NT1AJ3Zlcp4LX8--43" value="เปลี่ยนหน้าแสดงผลไปยัง Manage Question" style="rounded=1;whiteSpace=wrap;html=1;fontSize=9;" parent="1" vertex="1">
          <mxGeometry x="320" y="730" width="100" height="53.67" as="geometry" />
        </mxCell>
        <mxCell id="qMEl2NT1AJ3Zlcp4LX8--44" value="end" style="ellipse;whiteSpace=wrap;html=1;" parent="1" vertex="1">
          <mxGeometry x="495" y="733.67" width="70" height="50" as="geometry" />
        </mxCell>
        <mxCell id="qMEl2NT1AJ3Zlcp4LX8--46" value="" style="endArrow=classic;html=1;rounded=0;fontSize=9;" parent="1" edge="1">
          <mxGeometry width="50" height="50" relative="1" as="geometry">
            <mxPoint x="430" y="758.3200000000002" as="sourcePoint" />
            <mxPoint x="490" y="758.1700000000001" as="targetPoint" />
          </mxGeometry>
        </mxCell>
        <mxCell id="_KibSeznBIxETp0GOWQl-2" value="" style="endArrow=none;html=1;rounded=0;" edge="1" parent="1">
          <mxGeometry width="50" height="50" relative="1" as="geometry">
            <mxPoint x="560" y="40" as="sourcePoint" />
            <mxPoint x="630" y="40" as="targetPoint" />
          </mxGeometry>
        </mxCell>
        <mxCell id="_KibSeznBIxETp0GOWQl-3" value="" style="endArrow=none;html=1;rounded=0;" edge="1" parent="1">
          <mxGeometry width="50" height="50" relative="1" as="geometry">
            <mxPoint x="560" y="290" as="sourcePoint" />
            <mxPoint x="630" y="290" as="targetPoint" />
          </mxGeometry>
        </mxCell>
        <mxCell id="_KibSeznBIxETp0GOWQl-4" value="" style="endArrow=none;html=1;rounded=0;" edge="1" parent="1">
          <mxGeometry width="50" height="50" relative="1" as="geometry">
            <mxPoint x="580" y="509.5" as="sourcePoint" />
            <mxPoint x="630" y="510" as="targetPoint" />
          </mxGeometry>
        </mxCell>
        <mxCell id="_KibSeznBIxETp0GOWQl-5" value="" style="endArrow=none;html=1;rounded=0;" edge="1" parent="1">
          <mxGeometry width="50" height="50" relative="1" as="geometry">
            <mxPoint x="630" y="760" as="sourcePoint" />
            <mxPoint x="630" y="40" as="targetPoint" />
          </mxGeometry>
        </mxCell>
        <mxCell id="_KibSeznBIxETp0GOWQl-10" value="" style="endArrow=classic;html=1;rounded=0;" edge="1" parent="1">
          <mxGeometry width="50" height="50" relative="1" as="geometry">
            <mxPoint x="630" y="758.17" as="sourcePoint" />
            <mxPoint x="570" y="758.17" as="targetPoint" />
          </mxGeometry>
        </mxCell>
      </root>
    </mxGraphModel>
  </diagram>
</mxfile>
